<mxfile host="Electron" modified="2024-05-13T13:57:38.461Z" agent="Mozilla/5.0 (Windows NT 10.0; Win64; x64) AppleWebKit/537.36 (KHTML, like Gecko) draw.io/24.2.5 Chrome/120.0.6099.109 Electron/28.1.0 Safari/537.36" etag="L0CTbOhpVXuzyD5E7vAG" version="24.2.5" type="device">
  <diagram name="PÃ¡gina-1" id="Te_dCWf47TYjOMwu0fgj">
    <mxGraphModel dx="794" dy="1957" grid="1" gridSize="10" guides="1" tooltips="1" connect="1" arrows="1" fold="1" page="1" pageScale="1" pageWidth="827" pageHeight="1169" math="0" shadow="0">
      <root>
        <mxCell id="0" />
        <mxCell id="1" parent="0" />
        <mxCell id="feSZkq59gWw7UETYv2uz-35" value="Trabajador" style="swimlane;fontStyle=0;childLayout=stackLayout;horizontal=1;startSize=30;horizontalStack=0;resizeParent=1;resizeParentMax=0;resizeLast=0;collapsible=1;marginBottom=0;whiteSpace=wrap;html=1;" parent="1" vertex="1">
          <mxGeometry x="1080" y="-385" width="140" height="150" as="geometry" />
        </mxCell>
        <mxCell id="feSZkq59gWw7UETYv2uz-36" value="-DNI: String[0,1]" style="text;strokeColor=none;fillColor=none;align=left;verticalAlign=middle;spacingLeft=4;spacingRight=4;overflow=hidden;points=[[0,0.5],[1,0.5]];portConstraint=eastwest;rotatable=0;whiteSpace=wrap;html=1;" parent="feSZkq59gWw7UETYv2uz-35" vertex="1">
          <mxGeometry y="30" width="140" height="30" as="geometry" />
        </mxCell>
        <mxCell id="feSZkq59gWw7UETYv2uz-37" value="-Tlfno: int[0,1]" style="text;strokeColor=none;fillColor=none;align=left;verticalAlign=middle;spacingLeft=4;spacingRight=4;overflow=hidden;points=[[0,0.5],[1,0.5]];portConstraint=eastwest;rotatable=0;whiteSpace=wrap;html=1;" parent="feSZkq59gWw7UETYv2uz-35" vertex="1">
          <mxGeometry y="60" width="140" height="30" as="geometry" />
        </mxCell>
        <mxCell id="feSZkq59gWw7UETYv2uz-38" value="-Sueldo: Double[0,1]" style="text;strokeColor=none;fillColor=none;align=left;verticalAlign=middle;spacingLeft=4;spacingRight=4;overflow=hidden;points=[[0,0.5],[1,0.5]];portConstraint=eastwest;rotatable=0;whiteSpace=wrap;html=1;" parent="feSZkq59gWw7UETYv2uz-35" vertex="1">
          <mxGeometry y="90" width="140" height="30" as="geometry" />
        </mxCell>
        <mxCell id="feSZkq59gWw7UETYv2uz-39" value="-Direccion: String[0,1]" style="text;strokeColor=none;fillColor=none;align=left;verticalAlign=middle;spacingLeft=4;spacingRight=4;overflow=hidden;points=[[0,0.5],[1,0.5]];portConstraint=eastwest;rotatable=0;whiteSpace=wrap;html=1;" parent="feSZkq59gWw7UETYv2uz-35" vertex="1">
          <mxGeometry y="120" width="140" height="30" as="geometry" />
        </mxCell>
        <mxCell id="jlSi7XVDcsswdMgTNhQx-3" style="edgeStyle=orthogonalEdgeStyle;rounded=0;orthogonalLoop=1;jettySize=auto;html=1;entryX=0;entryY=0.5;entryDx=0;entryDy=0;" edge="1" parent="1" source="feSZkq59gWw7UETYv2uz-41" target="jlSi7XVDcsswdMgTNhQx-1">
          <mxGeometry relative="1" as="geometry" />
        </mxCell>
        <mxCell id="feSZkq59gWw7UETYv2uz-41" value="Jefe" style="swimlane;fontStyle=0;childLayout=stackLayout;horizontal=1;startSize=30;horizontalStack=0;resizeParent=1;resizeParentMax=0;resizeLast=0;collapsible=1;marginBottom=0;whiteSpace=wrap;html=1;" parent="1" vertex="1">
          <mxGeometry x="750" y="-490" width="140" height="60" as="geometry" />
        </mxCell>
        <mxCell id="feSZkq59gWw7UETYv2uz-42" style="edgeStyle=orthogonalEdgeStyle;rounded=0;orthogonalLoop=1;jettySize=auto;html=1;entryX=0;entryY=0.5;entryDx=0;entryDy=0;" parent="1" source="jlSi7XVDcsswdMgTNhQx-1" target="feSZkq59gWw7UETYv2uz-37" edge="1">
          <mxGeometry relative="1" as="geometry" />
        </mxCell>
        <mxCell id="feSZkq59gWw7UETYv2uz-43" value="Encargado" style="swimlane;fontStyle=0;childLayout=stackLayout;horizontal=1;startSize=30;horizontalStack=0;resizeParent=1;resizeParentMax=0;resizeLast=0;collapsible=1;marginBottom=0;whiteSpace=wrap;html=1;" parent="1" vertex="1">
          <mxGeometry x="750" y="-340" width="140" height="60" as="geometry" />
        </mxCell>
        <mxCell id="jlSi7XVDcsswdMgTNhQx-4" style="edgeStyle=orthogonalEdgeStyle;rounded=0;orthogonalLoop=1;jettySize=auto;html=1;entryX=0;entryY=0.5;entryDx=0;entryDy=0;" edge="1" parent="1" source="feSZkq59gWw7UETYv2uz-45" target="jlSi7XVDcsswdMgTNhQx-1">
          <mxGeometry relative="1" as="geometry" />
        </mxCell>
        <mxCell id="feSZkq59gWw7UETYv2uz-45" value="Empleado" style="swimlane;fontStyle=0;childLayout=stackLayout;horizontal=1;startSize=30;horizontalStack=0;resizeParent=1;resizeParentMax=0;resizeLast=0;collapsible=1;marginBottom=0;whiteSpace=wrap;html=1;" parent="1" vertex="1">
          <mxGeometry x="750" y="-190" width="140" height="60" as="geometry" />
        </mxCell>
        <mxCell id="feSZkq59gWw7UETYv2uz-47" value="Cliente" style="swimlane;fontStyle=0;childLayout=stackLayout;horizontal=1;startSize=30;horizontalStack=0;resizeParent=1;resizeParentMax=0;resizeLast=0;collapsible=1;marginBottom=0;whiteSpace=wrap;html=1;" parent="1" vertex="1">
          <mxGeometry x="1250" y="-380" width="140" height="120" as="geometry" />
        </mxCell>
        <mxCell id="feSZkq59gWw7UETYv2uz-48" value="-Socio: Boolean[0,1]" style="text;strokeColor=none;fillColor=none;align=left;verticalAlign=middle;spacingLeft=4;spacingRight=4;overflow=hidden;points=[[0,0.5],[1,0.5]];portConstraint=eastwest;rotatable=0;whiteSpace=wrap;html=1;" parent="feSZkq59gWw7UETYv2uz-47" vertex="1">
          <mxGeometry y="30" width="140" height="30" as="geometry" />
        </mxCell>
        <mxCell id="feSZkq59gWw7UETYv2uz-49" value="-Tlfno: int[0,1]" style="text;strokeColor=none;fillColor=none;align=left;verticalAlign=middle;spacingLeft=4;spacingRight=4;overflow=hidden;points=[[0,0.5],[1,0.5]];portConstraint=eastwest;rotatable=0;whiteSpace=wrap;html=1;" parent="feSZkq59gWw7UETYv2uz-47" vertex="1">
          <mxGeometry y="60" width="140" height="30" as="geometry" />
        </mxCell>
        <mxCell id="feSZkq59gWw7UETYv2uz-50" value="-Direccion: String[0,1]" style="text;strokeColor=none;fillColor=none;align=left;verticalAlign=middle;spacingLeft=4;spacingRight=4;overflow=hidden;points=[[0,0.5],[1,0.5]];portConstraint=eastwest;rotatable=0;whiteSpace=wrap;html=1;" parent="feSZkq59gWw7UETYv2uz-47" vertex="1">
          <mxGeometry y="90" width="140" height="30" as="geometry" />
        </mxCell>
        <mxCell id="jlSi7XVDcsswdMgTNhQx-2" value="" style="edgeStyle=orthogonalEdgeStyle;rounded=0;orthogonalLoop=1;jettySize=auto;html=1;entryX=0;entryY=0.5;entryDx=0;entryDy=0;" edge="1" parent="1" source="feSZkq59gWw7UETYv2uz-43" target="jlSi7XVDcsswdMgTNhQx-1">
          <mxGeometry relative="1" as="geometry">
            <mxPoint x="890" y="-305" as="sourcePoint" />
            <mxPoint x="1030" y="-305" as="targetPoint" />
          </mxGeometry>
        </mxCell>
        <mxCell id="jlSi7XVDcsswdMgTNhQx-1" value="" style="triangle;whiteSpace=wrap;html=1;" vertex="1" parent="1">
          <mxGeometry x="990" y="-350" width="60" height="80" as="geometry" />
        </mxCell>
      </root>
    </mxGraphModel>
  </diagram>
</mxfile>
